<svg xmlns="http://www.w3.org/2000/svg" viewBox="0 0 32 40" x="0px" y="0px"><title>location</title><g data-name="58-location"><path d="M16,31a1.0006,1.0006,0,0,1-.8418-.46C14.2207,29.0791,6,16.1162,6,11a10,10,0,0,1,20,0c0,5.1162-8.2207,18.0791-9.1582,19.54A1.0006,1.0006,0,0,1,16,31ZM16,3a8.0092,8.0092,0,0,0-8,8c0,3.4551,5.1738,12.5459,8,17.1211C18.8262,23.5449,24,14.4531,24,11A8.0092,8.0092,0,0,0,16,3Zm0,13a5,5,0,1,1,5-5A5.0059,5.0059,0,0,1,16,16Zm0-8a3,3,0,1,0,3,3A3.0033,3.0033,0,0,0,16,8Z"/></g><text x="0" y="47" fill="#000000" font-size="5px" font-weight="bold" font-family="'Helvetica Neue', Helvetica, Arial-Unicode, Arial, Sans-serif">Created by Ricki Tri Putra</text><text x="0" y="52" fill="#000000" font-size="5px" font-weight="bold" font-family="'Helvetica Neue', Helvetica, Arial-Unicode, Arial, Sans-serif">from the Noun Project</text></svg>