<svg xmlns="http://www.w3.org/2000/svg" width="1177.907" height="842.254" viewBox="0 0 1177.907 842.254">
  <g id="Group_9" data-name="Group 9" transform="translate(0.501 0.506)">
    <path id="cloud" d="M644.322,193.37a150.676,150.676,0,0,0-29.874,2.987A123.2,123.2,0,0,0,441.9,108.763,164.446,164.446,0,1,0,132.751,221a137.083,137.083,0,0,0,4.118,274.1H644.322a150.864,150.864,0,0,0,0-301.729Zm0,0" transform="translate(0.001 -0.392)" fill="#8da1af" stroke="#fff" stroke-width="1"/>
    <g id="windy" transform="translate(244.602 57.985)">
      <path id="Path_59" data-name="Path 59" d="M741.218,226.312a2.572,2.572,0,0,1,.091.376c67.368,5.323,120.508,66.927,120.508,142.106,0,78.682-58.214,142.482-130.006,142.482H67.335C43.411,511.277,24,490,24,463.783s19.411-47.494,43.335-47.494H140.59c-8.848-66.616,38.424-126.651,100.087-126.651,0-94.81,83.049-163.089,165.974-136.961,69.022-103.82,206.534-113.628,287.313-21.352H818.481c23.925,0,43.335,21.273,43.335,47.494s-19.41,47.494-43.335,47.494c-83.159,0-77.312-.2-77.173.376" transform="translate(23.494 -68.001)" fill="#add9ff"/>
      <g id="Group_2" data-name="Group 2" transform="translate(0 435.475)">
        <path id="Path_63" data-name="Path 63" d="M617.423,490.314H15.831a15.831,15.831,0,0,1,0-31.663H617.423a47.494,47.494,0,1,0-47.494-47.494,15.831,15.831,0,0,1-31.663,0,79.157,79.157,0,1,1,79.157,79.157Z" transform="translate(0 -332)" fill="#5989b3"/>
        <path id="Path_64" data-name="Path 64" d="M777.423,586.314a79.247,79.247,0,0,1-79.157-79.157,15.831,15.831,0,1,1,31.663,0,47.494,47.494,0,1,0,47.494-47.494H175.831a15.831,15.831,0,1,1,0-31.663H777.423a79.157,79.157,0,0,1,0,158.314Z" transform="translate(76.225 -238.024)" fill="#5989b3"/>
        <path id="Path_65" data-name="Path 65" d="M681.76,491.662H111.831a15.831,15.831,0,1,1,0-31.662H681.76a15.831,15.831,0,1,1,0,31.662Z" transform="translate(56.868 -206.698)" fill="#5989b3"/>
        <path id="Path_66" data-name="Path 66" d="M79.831,491.662a15.831,15.831,0,1,1,15.831-15.831A15.827,15.827,0,0,1,79.831,491.662Z" transform="translate(62.651 -206.698)" fill="#5989b3"/>
        <path id="Path_67" data-name="Path 67" d="M428.121,395.663H79.831a15.831,15.831,0,0,1,0-31.663h348.29a15.831,15.831,0,0,1,0,31.663Z" transform="translate(62.651 -300.675)" fill="#5989b3"/>
        <ellipse id="Ellipse_5" data-name="Ellipse 5" cx="14.684" cy="18.355" rx="14.684" ry="18.355" transform="translate(66.079 55.754)" fill="#5989b3"/>
        <path id="Path_68" data-name="Path 68" d="M510.482,395.663H383.831a15.831,15.831,0,1,1,0-31.663H510.482a15.831,15.831,0,1,1,0,31.663Z" transform="translate(279.84 -300.675)" fill="#5989b3"/>
        <path id="Path_69" data-name="Path 69" d="M479.832,395.663a15.831,15.831,0,1,1,15.831-15.832A15.835,15.835,0,0,1,479.832,395.663Z" transform="translate(373.816 -300.675)" fill="#5989b3"/>
      </g>
      <path id="Path_70" data-name="Path 70" d="M55.663,291.494a47.506,47.506,0,0,0,47.494,47.494H71.494a47.494,47.494,0,1,1,0-94.988h31.663A47.506,47.506,0,0,0,55.663,291.494Z" transform="translate(23.494 58.52)" fill="#d6ecff"/>
      <path id="Path_71" data-name="Path 71" d="M357.213,108.874A142.5,142.5,0,0,0,230.5,250.486c-67.588,0-119.386,60.042-109.692,126.651H89.149c-9.7-66.616,42.111-126.651,109.692-126.651C198.84,166.006,272.1,99.528,357.213,108.874Z" transform="translate(67.309 -53.424)" fill="#d6ecff"/>
    </g>
  </g>
</svg>
