<svg xmlns="http://www.w3.org/2000/svg" width="2247.184" height="1211.412" viewBox="0 0 2247.184 1211.412">
  <g id="Group_10" data-name="Group 10" transform="translate(0.751 0.512)">
    <path id="cloud" d="M324.648,415.668a324.246,324.246,0,0,1,64.287,6.427A265.122,265.122,0,0,1,760.247,233.6c66.694-183.71,269.686-278.563,453.4-211.869s278.563,269.7,211.869,453.4c160.927,5.087,288.046,138.287,285.639,299.271s-133.488,290.308-294.5,290.567h-1092C145.362,1064.966,0,919.617,0,740.317S145.362,415.668,324.648,415.668Zm0,0" transform="translate(534.747 -0.392)" fill="#94c3e5" stroke="#fff" stroke-width="1"/>
    <path id="cloud-2" data-name="cloud" d="M1332.375,399.446a311.584,311.584,0,0,0-61.776,6.176A254.765,254.765,0,0,0,913.791,224.491C849.7,47.956,654.64-43.191,478.105,20.9S210.424,280.063,274.512,456.583C119.872,461.471-2.282,589.468.031,744.164s128.274,278.968,283,279.217H1332.375c172.283,0,311.968-139.671,311.968-311.968S1504.658,399.446,1332.375,399.446Zm0,0" transform="translate(0.001 186.769)" fill="#a3d4f7" stroke="#fff" stroke-width="1.5"/>
  </g>
</svg>
