<svg xmlns="http://www.w3.org/2000/svg" width="1771.13" height="1266.363" viewBox="0 0 1771.13 1266.363">
  <g id="Group_9" data-name="Group 9" transform="translate(0.501 0.508)">
    <path id="cloud" d="M968.956,290.6a226.592,226.592,0,0,0-44.926,4.492A185.276,185.276,0,0,0,664.545,163.365C617.937,34.982,476.08-31.3,347.7,15.3S153.028,203.779,199.636,332.152C87.175,335.707-1.66,428.792.022,541.293S93.308,744.17,205.829,744.351H968.956c125.291,0,226.875-101.574,226.875-226.875S1094.247,290.6,968.956,290.6Zm0,0" transform="translate(0.001 -0.392)" fill="#8da1af" stroke="#fff" stroke-width="1"/>
    <g id="windy" transform="translate(367.841 87.2)">
      <path id="Path_59" data-name="Path 59" d="M1102.58,306.076a3.882,3.882,0,0,1,.136.566c101.311,8.005,181.225,100.647,181.225,213.7,0,118.325-87.544,214.27-195.508,214.27H89.169C53.19,734.616,24,702.624,24,663.193s29.19-71.423,65.169-71.423H199.333c-13.305-100.18,57.783-190.462,150.514-190.462,0-142.579,124.892-245.259,249.6-205.967,103.8-156.129,310.594-170.877,432.073-32.111h187.253c35.979,0,65.169,31.992,65.169,71.423s-29.19,71.423-65.169,71.423c-125.057,0-116.265-.306-116.055.566" transform="translate(47.423 -68.001)" fill="#add9ff"/>
      <g id="Group_2" data-name="Group 2" transform="translate(0 654.883)">
        <path id="Path_63" data-name="Path 63" d="M928.5,570.078H23.808a23.808,23.808,0,0,1,0-47.616H928.5a71.423,71.423,0,1,0-71.423-71.423,23.808,23.808,0,0,1-47.616,0A119.039,119.039,0,1,1,928.5,570.078Z" transform="translate(0 -332)" fill="#5989b3"/>
        <path id="Path_64" data-name="Path 64" d="M1088.5,666.078A119.174,119.174,0,0,1,969.465,547.039a23.808,23.808,0,1,1,47.615,0,71.423,71.423,0,1,0,71.423-71.423h-904.7a23.808,23.808,0,1,1,0-47.616h904.7a119.039,119.039,0,0,1,0,238.078Z" transform="translate(195.244 -142.307)" fill="#5989b3"/>
        <path id="Path_65" data-name="Path 65" d="M976.888,507.615H119.808a23.808,23.808,0,1,1,0-47.615h857.08a23.808,23.808,0,1,1,0,47.615Z" transform="translate(133.888 -79.075)" fill="#5989b3"/>
        <path id="Path_66" data-name="Path 66" d="M87.808,507.615a23.808,23.808,0,1,1,23.808-23.807A23.8,23.8,0,0,1,87.808,507.615Z" transform="translate(126.462 -79.075)" fill="#5989b3"/>
        <path id="Path_67" data-name="Path 67" d="M611.579,411.616H87.808a23.808,23.808,0,0,1,0-47.616H611.579a23.808,23.808,0,0,1,0,47.616Z" transform="translate(126.462 -268.769)" fill="#5989b3"/>
        <ellipse id="Ellipse_5" data-name="Ellipse 5" cx="22.083" cy="27.603" rx="22.083" ry="27.603" transform="translate(99.372 83.845)" fill="#5989b3"/>
        <path id="Path_68" data-name="Path 68" d="M582.27,411.616H391.808a23.808,23.808,0,1,1,0-47.616H582.27a23.808,23.808,0,1,1,0,47.616Z" transform="translate(606.247 -268.769)" fill="#5989b3"/>
        <path id="Path_69" data-name="Path 69" d="M487.809,411.616a23.808,23.808,0,1,1,23.807-23.808A23.813,23.813,0,0,1,487.809,411.616Z" transform="translate(795.94 -268.769)" fill="#5989b3"/>
      </g>
      <path id="Path_70" data-name="Path 70" d="M71.616,315.423a71.441,71.441,0,0,0,71.423,71.423H95.423a71.423,71.423,0,1,1,0-142.846h47.615A71.442,71.442,0,0,0,71.616,315.423Z" transform="translate(47.423 210.941)" fill="#d6ecff"/>
      <path id="Path_71" data-name="Path 71" d="M492.864,109.317C385.7,121.1,302.312,211.958,302.312,322.278c-101.641,0-179.537,90.294-164.958,190.462H89.738C75.156,412.56,153.067,322.278,254.7,322.278,254.7,195.233,364.873,95.261,492.864,109.317Z" transform="translate(145.548 -25.928)" fill="#d6ecff"/>
    </g>
  </g>
</svg>
